<svg xmlns="http://www.w3.org/2000/svg" width="3177.75" height="1298.35" viewBox="0 0 3177.75 1298.35"><defs><style>.a{fill:#5346ee;}.b{fill:#fff;}</style></defs><title>Artboard 12</title><rect class="a" x="-8" y="6" width="3178.5" height="1292.35"/><path class="b" d="M687,634.22q76.46,56.14,76.46,132.6t-60,122.92q-60,46.46-151,46.46-59.06,0-98.24-29.52t-39.2-73.08q0-43.54,29-69.2T516.68,733q-20.32,29-20.33,55.65t18.39,43.07q18.38,16.47,46.46,16.45t46.46-20.81Q626,806.52,626.05,779.4q0-44.5-41.62-79.36a526.24,526.24,0,0,0-54.2-38.23q-29-17.89-31-18.87a52.34,52.34,0,0,0-7.75-4.84q-17.42,20.32-50.33,55.65t-52.26,56.62q-54.21,59-61,98.72-2,7.75-1.94,29.52t13.07,45q13.07,23.22,31.45,34.84a229.41,229.41,0,0,0,36.3,18.87,201,201,0,0,0,31,10.17q13.06,2.89,13.06,3.87,0,6.75-21.29,15.48a239,239,0,0,1-82.75,14.52q-43.08,0-83.72-31-55.17-42.6-55.17-113.24,0-43.56,22.26-86.14Q269.87,715.53,416,583.9q-35.82-35.8-35.81-76.47t30.49-68.71q30.48-28.07,72.1-28.07,37.76,0,65.82,30Q567,461,567,492t-20.33,69.68Q650.24,608.1,687,634.22ZM477,524.86q23.22-24.18,23.22-34.85,0-24.18-21.29-26.13-24.19,0-24.2,27.1Q454.73,507.45,477,524.86Z"/><path class="b" d="M1219.35,582q0,100.68-120,153.89,2.91,17.42,8.71,41.62,17.43,71.64,58.07,73.56h5.81q77.43,0,115.18-136.47,20.33,18.39,38.71,55.17-13.56,52.26-38.23,88.07t-53.71,51.3q-51.31,27.1-96.79,27.1-106.49,0-149-119.05a456.71,456.71,0,0,1-22.26-96.79q55.15-13.53,87.1-45t31.94-67.27q0-61.92-61.94-61.94-33.89,0-58.07,25.65t-31.94,61.46Q927.06,682.61,914,788.6T897.05,930.39H768.32Q838,337.11,852.53,201.59q20.33-7.74,55.17-7.74,75.48,0,75.49,44.52v5.81q-19.38,175.19-35.81,268.09,53.21-49.35,133.56-49.36,60,0,99.21,31T1219.35,582Z"/><path class="b" d="M1530.5,665.2Q1560,629.4,1560,596t-17.9-45.49a68.67,68.67,0,0,0-39.2-12.09q-45.51,0-79.85,50.81t-34.36,121q0,70.18,33.39,104.53t82.76,34.36q72.59,0,139.37-50.33t108.4-131.63q21.27,20.32,38.71,50.33Q1759.41,790,1678.1,859.74q-40.65,33.88-96.3,55.17a318.32,318.32,0,0,1-114.69,21.29q-96.79,0-152.92-59-60-63.88-60-163.57t75-174.22q75-74.5,179.54-74.52,74.52,0,121,32.42t47.42,87.59q0,74.55-59.52,121t-163.08,64.84L1441,713.59Q1501,701,1530.5,665.2Z"/><path class="b" d="M1842.14,937.17q-59.52,0-93.39-33.39t-33.88-91.47q0-15.46,52.26-459.73,13.55-114.19,72.59-144.22,27.09-14.51,64.85-14.51,127.76,0,127.76,118.08,0,9.68-1,20.32-9.69,129.71-162.6,264.23-4.86,47.43-10.65,91.94-11.61,99.71-11.61,110.34,0,50.34,43.55,50.33,47.42,0,88.56-54.68T2042,654.55q8.71,2.91,24.19,16t21.3,22.74q-15.49,80.36-69.69,153.89a218.68,218.68,0,0,1-68.72,62Q1901.66,937.18,1842.14,937.17Zm37.27-437.48q89-97.74,89-175.18,0-46.45-34.84-46.46-22.27,1.95-29.52,29t-13.55,88.07q-6.32,61-8.23,75.5Z"/><path class="b" d="M2372.53,757.14q-30.48,78.4-87.1,128.25t-129.21,49.84q-72.6,0-108.89-47.91T2011,777.47q0-12.57,1-25.17l32.91-275.84a185.94,185.94,0,0,1,65.82-11.61q63.87,0,63.88,47.42,0,2-16,129.21t-16,147.6q0,55.17,53.23,55.17,45.48,0,76.46-51.3,54.19-92.91,57.1-210h-8.71q-40.65,0-61.94-18.39-24.21-21.28-24.2-51.3T2253,464.85q22.26-19.35,53.24-19.36,73.53,0,91.94,76.46,29-3.86,41.62-7.74v55.17l-35.81,5.8v16.46Q2403,678.75,2372.53,757.14Zm-82.75-243.9q0,16.47,28.07,16.46h5.81q-6.78-26.15-20.33-26.14C2294.29,503.56,2289.78,506.8,2289.78,513.24Z"/><path class="b" d="M2614,1217.85q-55.17,0-94.85-33.39t-39.68-97.28q0-78.39,79.36-152.92-56.15-4.85-90-36.78t-33.87-90q0-27.08,6.77-81.3t14.52-117.11q7.74-62.91,16.45-133.56,30-10.65,55.17-10.65t37.75,1.93q12.57,2,24.19,14.52t11.62,35.81l-31.94,246.81q-1.95,15.5-1.94,21.29,0,57.12,52.27,57.11,47.41,0,77.43-44.53,2.89-22.24,14.52-128.24t19.35-165q8.72-18.37,36.3-29t45-10.65q31,0,56.14,7.74l-45.49,357.14q113.23,20.32,135.5,155.83-3.89,18.38-36.78,58.07-19.36-121-106.46-147.11l-15.49,121q-10.66,87.11-55.17,143.73T2614,1217.85Zm-43.55-101.63q15.47,15.46,41.13,15.49t39.2-21.3q13.55-21.3,21.29-85.17l12.59-106.46q-126.81,65.81-129.7,150Q2555,1100.73,2570.46,1116.22Z"/></svg>