<svg xmlns="http://www.w3.org/2000/svg" width="1024" height="1024" viewBox="0 0 1024 1024"><defs><style>.a{fill:#5346ee;}.b{fill:#fff;fill-rule:evenodd;}</style></defs><title>Artboard 11</title><rect class="a" width="1024" height="1024" rx="512" ry="512"/><path class="b" d="M536.46,160.43c50.8-67,121.44-67.29,121.44-67.29s10.5,63-40,123.61C564,281.51,502.78,270.91,502.78,270.91S491.28,220,536.46,160.43Z"/><path class="b" d="M509.24,315c26.14,0,74.65-35.93,137.79-35.93,108.69,0,151.45,77.34,151.45,77.34s-83.63,42.75-83.63,146.5C714.85,620,819,660.31,819,660.31s-72.82,205-171.19,205c-45.18,0-80.3-30.44-127.9-30.44-48.51,0-96.66,31.58-128,31.58-89.82,0-203.3-194.44-203.3-350.74,0-153.77,96.05-234.44,186.15-234.44C433.34,281.24,478.79,315,509.24,315Z"/><path class="a" d="M337.85,627.78Q286.41,590,286.42,538.57t40.37-82.69q40.36-31.26,101.57-31.25,39.72,0,66.09,19.85t26.37,49.17q0,29.29-19.53,46.55t-48.84,21.16q13.68-19.54,13.67-37.44t-12.37-29q-12.36-11.08-31.25-11.07t-31.26,14a47.23,47.23,0,0,0-12.37,32.22q0,30,28,53.39a353.47,353.47,0,0,0,36.47,25.72q19.53,12,20.83,12.7a33.71,33.71,0,0,0,5.21,3.25q11.72-13.68,33.86-37.44t35.15-38.08q36.47-39.72,41-66.41,1.3-5.21,1.3-19.87t-8.78-30.27q-8.79-15.61-21.16-23.44A156.09,156.09,0,0,0,526.35,397a136.66,136.66,0,0,0-20.83-6.83c-5.86-1.3-8.8-2.17-8.8-2.61q0-4.54,14.33-10.42a161,161,0,0,1,55.67-9.76q29,0,56.31,20.84,37.13,28.65,37.12,76.18,0,29.29-15,57.94-26.7,50.79-125,139.34,24.09,24.09,24.09,51.44t-20.51,46.22a69.23,69.23,0,0,1-48.51,18.89q-25.38,0-44.28-20.19-12.36-13.68-12.37-34.51t13.67-46.88Q362.6,645.34,337.85,627.78Zm141.3,73.57q-15.61,16.26-15.63,23.44,0,16.26,14.33,17.58,16.27,0,16.27-18.23Q494.12,713.06,479.15,701.35Z"/></svg>