<svg xmlns="http://www.w3.org/2000/svg" xmlns:xlink="http://www.w3.org/1999/xlink" width="1024" height="1024" viewBox="0 0 1024 1024"><defs><style>.a{fill:url(#a);}.b{fill:#fff;}</style><linearGradient id="a" x1="0.6" y1="512" x2="1024.6" y2="512" gradientUnits="userSpaceOnUse"><stop offset="0" stop-color="#5346ee"/><stop offset="0.35" stop-color="#534fee"/><stop offset="0.57" stop-color="#5358ee"/><stop offset="0.87" stop-color="#5374ee"/><stop offset="0.99" stop-color="#537fee"/></linearGradient></defs><title>Artboard 9</title><rect class="a" x="0.6" width="1024" height="1024" rx="240" ry="240"/><path class="b" d="M289.77,625.54q-81.51-59.87-81.51-141.39t64-131.06q64-49.54,161-49.53,63,0,104.75,31.46T579.77,413q0,46.43-30.95,73.78t-77.41,33.54q21.69-31,21.67-59.34T473.47,415q-19.59-17.55-49.53-17.55T374.4,419.65q-19.61,22.17-19.61,51.08,0,47.47,44.37,84.62A563.49,563.49,0,0,0,457,596.12q31,19.08,33,20.12a54,54,0,0,0,8.25,5.16q18.59-21.67,53.67-59.34t55.72-60.36q57.79-63,65-105.27,2.05-8.25,2.06-31.48t-13.92-48q-13.92-24.75-33.55-37.15a247,247,0,0,0-38.7-20.13q-19.08-7.71-33-10.83c-9.28-2.06-13.94-3.43-13.94-4.12q0-7.22,22.71-16.52a255.07,255.07,0,0,1,88.23-15.48q45.94,0,89.27,33,58.83,45.42,58.83,120.75,0,46.42-23.74,91.84-42.3,80.49-198.14,220.85,38.21,38.17,38.19,81.53T584.43,834q-32.5,29.94-76.89,29.94-40.25,0-70.19-32-19.59-21.67-19.61-54.7t21.67-74.3Q329,653.39,289.77,625.54Zm224,116.61Q489,767.94,489,779.31q0,25.77,22.7,27.86,25.82,0,25.8-28.9Q537.46,760.72,513.72,742.15Z"/></svg>