<svg xmlns="http://www.w3.org/2000/svg" width="1024" height="1024" viewBox="0 0 1024 1024"><defs><style>.a{fill:#fff;}.b{fill:#5346ee;}</style></defs><title>Artboard 6</title><path class="a" d="M240,1007.5c-59.43,0-115.49-23.32-157.83-65.67S16.5,843.43,16.5,784V240c0-59.43,23.32-115.49,65.67-157.83S180.57,16.5,240,16.5H784c59.43,0,115.49,23.32,157.83,65.67s65.67,98.4,65.67,157.83V784c0,59.43-23.32,115.49-65.67,157.83S843.43,1007.5,784,1007.5Z"/><path class="b" d="M784,33a204.2,204.2,0,0,1,80.28,16.31A209.24,209.24,0,0,1,974.69,159.72,204.2,204.2,0,0,1,991,240V784a204.2,204.2,0,0,1-16.31,80.28A209.24,209.24,0,0,1,864.28,974.69,204.2,204.2,0,0,1,784,991H240a204.2,204.2,0,0,1-80.28-16.31A209.24,209.24,0,0,1,49.31,864.28,204.2,204.2,0,0,1,33,784V240a204.2,204.2,0,0,1,16.31-80.28A209.24,209.24,0,0,1,159.72,49.31,204.2,204.2,0,0,1,240,33H784m0-33H240C108,0,0,108,0,240V784c0,132,108,240,240,240H784c132,0,240-108,240-240V240C1024,108,916,0,784,0Z"/><path class="b" d="M289.17,625.54q-81.53-59.87-81.52-141.39t64-131.06q64-49.54,161-49.53,63,0,104.75,31.46T579.17,413q0,46.43-31,73.78t-77.4,33.54q21.68-31,21.67-59.34T472.87,415q-19.59-17.55-49.53-17.55t-49.55,22.19q-19.59,22.17-19.61,51.08,0,47.47,44.38,84.62a562.39,562.39,0,0,0,57.81,40.77q31,19.08,33,20.12a54,54,0,0,0,8.25,5.16q18.58-21.67,53.67-59.34T607,501.7q57.79-63,65-105.27,2.07-8.25,2.06-31.48t-13.92-48q-13.92-24.75-33.54-37.15a247,247,0,0,0-38.71-20.13q-19.08-7.71-33-10.83c-9.28-2.06-13.94-3.43-13.94-4.12q0-7.22,22.7-16.52a255.13,255.13,0,0,1,88.24-15.48q45.93,0,89.26,33Q800,291.18,800,366.51q0,46.42-23.73,91.84Q734,538.84,578.14,679.2q38.19,38.17,38.18,81.53T583.82,834q-32.51,29.94-76.89,29.94-40.24,0-70.18-32-19.61-21.67-19.61-54.7t21.67-74.3Q328.4,653.39,289.17,625.54Zm224,116.61q-24.75,25.79-24.77,37.16,0,25.77,22.71,27.86,25.8,0,25.79-28.9Q536.85,760.72,513.12,742.15Z"/></svg>